<?xml version="1.0" encoding="UTF-8"?>
<svg xmlns="http://www.w3.org/2000/svg" xmlns:xlink="http://www.w3.org/1999/xlink" width="59px" height="50px" viewBox="0 0 59 50" version="1.1">
    <!-- Generator: Sketch 52.6 (67491) - http://www.bohemiancoding.com/sketch -->
    <title>070 - Star Tag</title>
    <desc>Created with Sketch.</desc>
    <g id="Page-1" stroke="none" stroke-width="1" fill="none" fill-rule="evenodd">
        <g id="070---Star-Tag">
            <path d="M48,0 L29.989,0 C29.4611969,0.00130466268 28.9549545,0.209546182 28.579,0.58 L14.019,14.77 L0.579,28.4 C0.204741205,28.7791011 -0.00344596426,29.291442 0.000305470328,29.8241457 C0.00405690491,30.3568494 0.219439137,30.8662075 0.599,31.24 L9.769,40.23 L18.759,49.4 C19.1327925,49.7795609 19.6421506,49.9949431 20.1748543,49.9986945 C20.707558,50.002446 21.2198989,49.7942588 21.599,49.42 L35.229,35.98 L49.419,21.42 C49.7894538,21.0440455 49.9976953,20.5378031 49.999,20.01 L49.999,2 C49.9957081,0.897186893 49.1028113,0.00384340508 48,0 Z M43,10 C41.3431458,10 40,8.65685425 40,7 C40,5.34314575 41.3431458,4 43,4 C44.6568542,4 46,5.34314575 46,7 C46,7.79564947 45.6839295,8.55871121 45.1213203,9.12132034 C44.5587112,9.68392948 43.7956495,10 43,10 Z" id="Shape" fill="#F29C1F" fill-rule="nonzero"/>
            <path d="M43,11 C40.790861,11 39,9.209139 39,7 C39,4.790861 40.790861,3 43,3 C45.209139,3 47,4.790861 47,7 C47,8.06086596 46.5785726,9.07828161 45.8284271,9.82842712 C45.0782816,10.5785726 44.060866,11 43,11 Z M43,5 C41.8954305,5 41,5.8954305 41,7 C41,8.1045695 41.8954305,9 43,9 C44.1045695,9 45,8.1045695 45,7 C45,5.8954305 44.1045695,5 43,5 Z" id="Shape" fill="#BDC3C7" fill-rule="nonzero"/>
            <path d="M43,11 C40.790861,11 39,9.209139 39,7 C39,4.790861 40.790861,3 43,3 C45.209139,3 47,4.790861 47,7 C47,8.06086596 46.5785726,9.07828161 45.8284271,9.82842712 C45.0782816,10.5785726 44.060866,11 43,11 Z M43,5 C41.8954305,5 41,5.8954305 41,7 C41,8.1045695 41.8954305,9 43,9 C44.1045695,9 45,8.1045695 45,7 C45,5.8954305 44.1045695,5 43,5 Z" id="Shape" fill="#BDC3C7" fill-rule="nonzero"/>
            <path d="M59,8.5 C59,11.07 55.56,13 51,13 C50.66,13 50.32,12.99 50,12.97 C49.9707516,12.9617524 49.9403454,12.9583739 49.91,12.96 C47.7026979,12.8806943 45.5631922,12.1767726 43.74,10.93 C43.4871699,10.7299601 43.2648346,10.4941499 43.08,10.23 C43.0239985,10.15942 42.9769725,10.0821629 42.94,10 L42.93,10 C42.93,9.99 42.92,9.98 42.92,9.97 C42.7237698,9.65649109 42.5944012,9.30583416 42.54,8.94 C42.5113712,8.79512782 42.497965,8.64765979 42.5,8.5 C42.5815815,7.26262973 43.2910223,6.15318495 44.38,5.56 C44.7746153,5.93521047 44.9986202,6.45547979 45,7 C45.0014897,7.25436401 44.9504229,7.50629395 44.85,7.74 C44.7088821,7.89167069 44.603025,8.07265233 44.54,8.27 C44.5122229,8.34344211 44.4986489,8.42149212 44.5,8.5 C44.5036651,8.69573957 44.5702889,8.88509143 44.69,9.04 C44.7,9.05 44.7,9.06 44.71,9.07 C44.7661019,9.15828801 44.8371657,9.23611981 44.92,9.3 C45.176865,9.53421665 45.4665962,9.72961677 45.78,9.88 C47.1051296,10.5038713 48.53774,10.8674556 50,10.951 C50.0223745,10.9592028 50.0462237,10.9626098 50.07,10.961 C50.38,10.991 50.69,11.001 51,11.001 C54.72,11.001 57,9.541 57,8.501 C57,7.461 54.719,6 51,6 C50.696185,5.99791174 50.39246,6.01126228 50.09,6.04 L50,6.04 L50,4.04 C50.32,4.01 50.66,4 51,4 C55.559,4 59,5.931 59,8.5 Z" id="Path" fill="#A59078"/>
            <circle id="Oval" fill="#F0C419" cx="24.5" cy="25.5" r="11.5"/>
            <path d="M25.532,18.732 L26.562,21.812 C26.7134076,22.2520793 27.1286105,22.5465837 27.594,22.544 L30.912,22.544 C31.3780338,22.5324333 31.7967197,22.8272605 31.9428943,23.2699278 C32.0890689,23.7125951 31.928281,24.1987722 31.547,24.467 L28.876,26.352 C28.4929372,26.6165557 28.330061,27.1019269 28.476,27.544 L29.5,30.6 C29.6364262,31.0441475 29.4734951,31.525773 29.0954425,31.7958754 C28.7173899,32.0659778 28.2089552,32.0640143 27.833,31.791 L25.133,29.891 C24.752418,29.6219421 24.243582,29.6219421 23.863,29.891 L21.163,31.791 C20.7869763,32.060714 20.2809092,32.0608984 19.9046889,31.7914587 C19.5284687,31.5220189 19.365711,31.0428385 19.5,30.6 L20.523,27.541 C20.668939,27.0989269 20.5060628,26.6135557 20.123,26.349 L17.452,24.464 C17.070719,24.1957722 16.9099311,23.7095951 17.0561057,23.2669278 C17.2022803,22.8242605 17.6209662,22.5294333 18.087,22.541 L21.405,22.541 C21.8703895,22.5435837 22.2855924,22.2490793 22.437,21.809 L23.467,18.729 C23.6203376,18.289557 24.0351401,17.9954198 24.5005669,17.996096 C24.9659937,17.9967721 25.3799399,18.2921133 25.532,18.732 Z" id="Path" fill="#F5EFCA"/>
        </g>
    </g>
</svg>
