<?xml version="1.0" encoding="UTF-8" standalone="no"?> <svg width="64" height="64" viewBox="0 0 64 64" fill="none" xmlns="http://www.w3.org/2000/svg">
<path d="M51 17H23C21.8954 17 21 17.8954 21 19C21 20.1046 21.8954 21 23 21H51C52.1046 21 53 20.1046 53 19C53 17.8954 52.1046 17 51 17Z" fill="#F8664F"/>
<path d="M26 17H51C51.5304 17 52.0391 17.2107 52.4142 17.5858C52.7893 17.9609 53 18.4696 53 19H28C27.4696 19 26.9609 18.7893 26.5858 18.4142C26.2107 18.0391 26 17.5304 26 17Z" fill="#F89C8D"/>
<path d="M25 17C25 13.8174 26.2643 10.7652 28.5147 8.51472C30.7652 6.26428 33.8174 5 37 5V5C40.1826 5 43.2348 6.26428 45.4853 8.51472C47.7357 10.7652 49 13.8174 49 17H25Z" fill="#F8664F"/>
<path d="M37 15C32 15 29.64 8.62 33.59 5.53L33.69 5.47C31.1865 6.18843 28.9846 7.7019 27.417 9.78188C25.8493 11.8619 25.001 14.3954 25 17H49C48.996 16.3295 48.9358 15.6605 48.82 15H37Z" fill="#CC5144"/>
<path d="M36 12H38C38.2652 12 38.5196 11.8946 38.7071 11.7071C38.8946 11.5196 39 11.2652 39 11V5.18C38.3395 5.06423 37.6705 5.00402 37 5C35.6362 5.00043 34.2829 5.23727 33 5.7V9C33 9.79565 33.3161 10.5587 33.8787 11.1213C34.4413 11.6839 35.2044 12 36 12Z" fill="#CC5144"/>
<path d="M21 39C18.8783 39 16.8434 39.8429 15.3431 41.3431C13.8429 42.8434 13 44.8783 13 47V61H61V47C61 44.8783 60.1571 42.8434 58.6569 41.3431C57.1566 39.8429 55.1217 39 53 39H21Z" fill="#A1D51C"/>
<path d="M23 43V39H21C18.8783 39 16.8434 39.8429 15.3431 41.3431C13.8429 42.8434 13 44.8783 13 47V61H61V55H35C31.8174 55 28.7652 53.7357 26.5147 51.4853C24.2643 49.2348 23 46.1826 23 43Z" fill="#7AB92D"/>
<path d="M52 47H22V61H52V47Z" fill="#57B7EB"/>
<path d="M44 47V50C44 50.7956 44.3161 51.5587 44.8787 52.1213C45.4413 52.6839 46.2044 53 47 53C47.7956 53 48.5587 52.6839 49.1213 52.1213C49.6839 51.5587 50 50.7956 50 50V47H44Z" fill="#4891D3"/>
<path d="M26 49V47H22V61H52V57H34C31.8783 57 29.8434 56.1571 28.3431 54.6569C26.8429 53.1566 26 51.1217 26 49Z" fill="#4891D3"/>
<path d="M45 55H29V61H45V55Z" fill="#FCBC04"/>
<path d="M34 57C32.1818 56.9986 30.4182 56.3778 29 55.24V61H45V57H34Z" fill="#E59730"/>
<path d="M24 37H26C26.5304 37 27.0391 37.2107 27.4142 37.5858C27.7893 37.9609 28 38.4696 28 39V48C28 48.7956 27.6839 49.5587 27.1213 50.1213C26.5587 50.6839 25.7956 51 25 51V51C24.2044 51 23.4413 50.6839 22.8787 50.1213C22.3161 49.5587 22 48.7956 22 48V39C22 38.4696 22.2107 37.9609 22.5858 37.5858C22.9609 37.2107 23.4696 37 24 37V37Z" fill="#57B7EB"/>
<path d="M25 37H26C26.5304 37 27.0391 37.2107 27.4142 37.5858C27.7893 37.9609 28 38.4696 28 39V48C27.2044 48 26.4413 47.6839 25.8787 47.1213C25.3161 46.5587 25 45.7956 25 45V37Z" fill="#AAE1F9"/>
<path d="M48 37H50C50.5304 37 51.0391 37.2107 51.4142 37.5858C51.7893 37.9609 52 38.4696 52 39V48C52 48.7956 51.6839 49.5587 51.1213 50.1213C50.5587 50.6839 49.7956 51 49 51C48.2044 51 47.4413 50.6839 46.8787 50.1213C46.3161 49.5587 46 48.7956 46 48V39C46 38.4696 46.2107 37.9609 46.5858 37.5858C46.9609 37.2107 47.4696 37 48 37Z" fill="#57B7EB"/>
<path d="M49 37H50C50.5304 37 51.0391 37.2107 51.4142 37.5858C51.7893 37.9609 52 38.4696 52 39V48C51.2044 48 50.4413 47.6839 49.8787 47.1213C49.3161 46.5587 49 45.7956 49 45V37Z" fill="#AAE1F9"/>
<path d="M32 33V39C32 40.3261 32.5268 41.5979 33.4645 42.5355C34.4021 43.4732 35.6739 44 37 44C38.3261 44 39.5979 43.4732 40.5355 42.5355C41.4732 41.5979 42 40.3261 42 39V33H32Z" fill="#FCBC04"/>
<path d="M32 33V39C32.0101 39.1876 32.0301 39.3745 32.06 39.56C33.0131 39.8502 34.0037 39.9984 35 40C37.6177 39.9996 40.1309 38.9728 42 37.14V33H32Z" fill="#E59730"/>
<path d="M27 21H47V27C47 29.6522 45.9464 32.1957 44.0711 34.0711C42.1957 35.9464 39.6522 37 37 37C34.3478 37 31.8043 35.9464 29.9289 34.0711C28.0536 32.1957 27 29.6522 27 27V21Z" fill="#F9E109"/>
<path d="M31 27C31 26.2044 31.3161 25.4413 31.8787 24.8787C32.4413 24.3161 33.2044 24 34 24H47V21H27V26.68C26.9578 29.2265 27.8688 31.6968 29.5543 33.6062C31.2397 35.5155 33.578 36.726 36.11 37C37.0779 37.0757 38.0517 37.0083 39 36.8C36.7413 36.3389 34.7112 35.1116 33.2534 33.3258C31.7956 31.54 30.9995 29.3053 31 27V27Z" fill="#FCBC04"/>
<path d="M47 21H51V23C51 23.5304 50.7893 24.0391 50.4142 24.4142C50.0391 24.7893 49.5304 25 49 25H47V21Z" fill="#FCBC04"/>
<path d="M27 25H25C24.4696 25 23.9609 24.7893 23.5858 24.4142C23.2107 24.0391 23 23.5304 23 23V21H27V25Z" fill="#E59730"/>
<path d="M23 22C23.5304 22 24.0391 22.2107 24.4142 22.5858C24.7893 22.9609 25 23.4696 25 24V25C24.4696 25 23.9609 24.7893 23.5858 24.4142C23.2107 24.0391 23 23.5304 23 23V22Z" fill="#FCBC04"/>
<path d="M49 25V24C49 23.4696 49.2107 22.9609 49.5858 22.5858C49.9609 22.2107 50.4696 22 51 22V23C51 23.5304 50.7893 24.0391 50.4142 24.4142C50.0391 24.7893 49.5304 25 49 25Z" fill="#F9E109"/>
<path d="M38 3H36C35.4477 3 35 3.44772 35 4V10C35 10.5523 35.4477 11 36 11H38C38.5523 11 39 10.5523 39 10V4C39 3.44772 38.5523 3 38 3Z" fill="#F89C8D"/>
<path d="M37 7V3H36C35.7348 3 35.4804 3.10536 35.2929 3.29289C35.1054 3.48043 35 3.73478 35 4V10C35 10.2652 35.1054 10.5196 35.2929 10.7071C35.4804 10.8946 35.7348 11 36 11H38C38.2652 11 38.5196 10.8946 38.7071 10.7071C38.8946 10.5196 39 10.2652 39 10V9C38.4696 9 37.9609 8.78929 37.5858 8.41421C37.2107 8.03914 37 7.53043 37 7Z" fill="#F8664F"/>
<path d="M15 34V30C15 28.9391 14.5786 27.9217 13.8284 27.1716C13.0783 26.4214 12.0609 26 11 26V32H7V26C5.93914 26 4.92172 26.4214 4.17157 27.1716C3.42143 27.9217 3 28.9391 3 30V34C3.00287 34.8846 3.29887 35.7432 3.84169 36.4416C4.38451 37.1401 5.14353 37.6389 6 37.86V49.86C4.85615 50.5204 3.96218 51.5398 3.45672 52.7601C2.95127 53.9803 2.8626 55.3333 3.20445 56.6091C3.5463 57.8849 4.29957 59.0122 5.34743 59.8163C6.3953 60.6203 7.6792 61.0562 9 61.0562C10.3208 61.0562 11.6047 60.6203 12.6526 59.8163C13.7004 59.0122 14.4537 57.8849 14.7956 56.6091C15.1374 55.3333 15.0487 53.9803 14.5433 52.7601C14.0378 51.5398 13.1439 50.5204 12 49.86V37.86C12.8565 37.6389 13.6155 37.1401 14.1583 36.4416C14.7011 35.7432 14.9971 34.8846 15 34ZM9 57C8.60444 57 8.21776 56.8827 7.88886 56.6629C7.55996 56.4432 7.30362 56.1308 7.15224 55.7654C7.00087 55.3999 6.96126 54.9978 7.03843 54.6098C7.1156 54.2219 7.30608 53.8655 7.58579 53.5858C7.86549 53.3061 8.22186 53.1156 8.60982 53.0384C8.99778 52.9613 9.39992 53.0009 9.76537 53.1522C10.1308 53.3036 10.4432 53.56 10.6629 53.8889C10.8827 54.2178 11 54.6044 11 55C11 55.5304 10.7893 56.0391 10.4142 56.4142C10.0391 56.7893 9.53043 57 9 57Z" fill="#FCBC04"/>
<path d="M16.5 10C16.497 9.72199 16.4736 9.44459 16.43 9.17L18.06 8.23L16.06 4.77L14.43 5.71C14.0003 5.3594 13.5176 5.07925 13 4.88V3H9V4.88C8.48241 5.07925 7.99974 5.3594 7.57 5.71L5.94 4.77L3.94 8.23L5.57 9.17C5.52642 9.44459 5.50303 9.72199 5.5 10C5.50303 10.278 5.52642 10.5554 5.57 10.83L3.94 11.77L5.94 15.23L7.57 14.29C7.99974 14.6406 8.48241 14.9208 9 15.12V17H13V15.12C13.5176 14.9208 14.0003 14.6406 14.43 14.29L16.06 15.23L18.06 11.77L16.43 10.83C16.4736 10.5554 16.497 10.278 16.5 10ZM11 12C10.6044 12 10.2178 11.8827 9.88886 11.6629C9.55996 11.4432 9.30362 11.1308 9.15224 10.7654C9.00087 10.3999 8.96126 9.99778 9.03843 9.60982C9.1156 9.22186 9.30608 8.86549 9.58579 8.58579C9.86549 8.30608 10.2219 8.1156 10.6098 8.03843C10.9978 7.96126 11.3999 8.00087 11.7654 8.15224C12.1308 8.30362 12.4432 8.55996 12.6629 8.88886C12.8827 9.21776 13 9.60444 13 10C13 10.5304 12.7893 11.0391 12.4142 11.4142C12.0391 11.7893 11.5304 12 11 12Z" fill="#AAE1F9"/>
<path d="M14.5 13C13.0033 13.0002 11.5333 12.6034 10.24 11.85C10.0624 11.7754 9.89718 11.6743 9.75 11.55C8.63605 10.8036 7.71523 9.80336 7.06329 8.63162C6.41135 7.45987 6.04693 6.15008 6 4.81H5.92L3.92 8.27L5.55 9.21C5.51501 9.47185 5.49831 9.73582 5.5 10C5.50302 10.278 5.52642 10.5554 5.57 10.83L3.94 11.77L5.94 15.23L7.57 14.29C7.99974 14.6406 8.48241 14.9208 9 15.12V17H13V15.12C13.5176 14.9208 14.0003 14.6406 14.43 14.29L16.06 15.23L17.72 12.37C16.6968 12.784 15.6037 12.9978 14.5 13V13Z" fill="#57B7EB"/>
<path d="M13 30V26.55C12.3933 26.194 11.7034 26.0043 11 26V32C11.5304 32 12.0391 31.7893 12.4142 31.4142C12.7893 31.0391 13 30.5304 13 30Z" fill="#E59730"/>
<path d="M13 36H9C7.93913 36 6.92172 35.5786 6.17157 34.8284C5.42143 34.0783 5 33.0609 5 32V28C4.9995 27.4337 5.12235 26.874 5.36 26.36C4.6582 26.6755 4.06228 27.1867 3.64369 27.8323C3.2251 28.4779 3.00161 29.2306 3 30V34C3 35.0609 3.42143 36.0783 4.17157 36.8284C4.92172 37.5786 5.93913 38 7 38H11C11.7694 37.9984 12.5221 37.7749 13.1677 37.3563C13.8133 36.9377 14.3245 36.3418 14.64 35.64C14.126 35.8776 13.5663 36.0005 13 36V36Z" fill="#E59730"/>
<path d="M12 58C10.1368 58 8.33202 57.3497 6.89708 56.1612C5.46213 54.9727 4.48703 53.3206 4.14 51.49C3.64272 52.1625 3.29152 52.9315 3.10895 53.7477C2.92638 54.5639 2.91646 55.4092 3.07984 56.2295C3.24321 57.0498 3.57627 57.8268 4.05765 58.5107C4.53902 59.1947 5.15806 59.7705 5.87506 60.2011C6.59205 60.6317 7.39116 60.9077 8.22108 61.0112C9.05101 61.1148 9.89343 61.0438 10.6943 60.8026C11.4951 60.5615 12.2367 60.1555 12.8714 59.6109C13.5062 59.0663 14.02 58.3949 14.38 57.64C13.609 57.8777 12.8068 57.9991 12 58V58Z" fill="#E59730"/>
<path d="M9 49C10.0538 49.0019 11.0885 49.2812 12 49.81V47H11C10.4696 47 9.96086 46.7893 9.58579 46.4142C9.21071 46.0391 9 45.5304 9 45V42C9 41.4696 9.21071 40.9609 9.58579 40.5858C9.96086 40.2107 10.4696 40 11 40H12V37H6V49.81C6.91152 49.2812 7.94622 49.0019 9 49V49Z" fill="#E59730"/>
<path d="M45 54H29C28.7348 54 28.4804 54.1054 28.2929 54.2929C28.1054 54.4804 28 54.7348 28 55V61C28 61.2652 28.1054 61.5196 28.2929 61.7071C28.4804 61.8946 28.7348 62 29 62C29.2652 62 29.5196 61.8946 29.7071 61.7071C29.8946 61.5196 30 61.2652 30 61V56H44V61C44 61.2652 44.1054 61.5196 44.2929 61.7071C44.4804 61.8946 44.7348 62 45 62C45.2652 62 45.5196 61.8946 45.7071 61.7071C45.8946 61.5196 46 61.2652 46 61V55C46 54.7348 45.8946 54.4804 45.7071 54.2929C45.5196 54.1054 45.2652 54 45 54Z" fill="#39519D"/>
<path d="M42 26C42.5523 26 43 25.5523 43 25C43 24.4477 42.5523 24 42 24C41.4477 24 41 24.4477 41 25C41 25.5523 41.4477 26 42 26Z" fill="#39519D"/>
<path d="M32 26C32.5523 26 33 25.5523 33 25C33 24.4477 32.5523 24 32 24C31.4477 24 31 24.4477 31 25C31 25.5523 31.4477 26 32 26Z" fill="#39519D"/>
<path d="M56.38 38.66C56.2585 38.6101 56.1284 38.5846 55.9971 38.585C55.8658 38.5854 55.7358 38.6116 55.6146 38.6622C55.4934 38.7128 55.3834 38.7868 55.2908 38.8799C55.1982 38.9731 55.1249 39.0835 55.075 39.205C55.0251 39.3265 54.9996 39.4566 55 39.5879C55.0004 39.7192 55.0266 39.8492 55.0772 39.9704C55.1278 40.0916 55.2018 40.2016 55.2949 40.2942C55.3881 40.3868 55.4985 40.4601 55.62 40.51C56.9137 41.0322 58.0218 41.929 58.8022 43.0854C59.5827 44.2417 59.9998 45.6049 60 47V61C60 61.2652 60.1054 61.5196 60.2929 61.7071C60.4804 61.8946 60.7348 62 61 62C61.2652 62 61.5196 61.8946 61.7071 61.7071C61.8946 61.5196 62 61.2652 62 61V47C61.9998 45.2084 61.4648 43.4576 60.4636 41.9718C59.4624 40.486 58.0405 39.3329 56.38 38.66V38.66Z" fill="#39519D"/>
<path d="M51 16H50C49.791 13.2486 48.7079 10.636 46.9088 8.54369C45.1098 6.45141 42.689 4.98901 40 4.37V4C40 3.46957 39.7893 2.96086 39.4142 2.58579C39.0391 2.21071 38.5304 2 38 2H36C35.4696 2 34.9609 2.21071 34.5858 2.58579C34.2107 2.96086 34 3.46957 34 4V4.37C31.3109 4.98901 28.8902 6.45141 27.0912 8.54369C25.2921 10.636 24.209 13.2486 24 16H23C22.2965 16.0055 21.6172 16.258 21.081 16.7135C20.5448 17.169 20.1857 17.7985 20.0666 18.4919C19.9475 19.1853 20.0758 19.8985 20.4292 20.5069C20.7826 21.1152 21.3386 21.58 22 21.82V23C22 23.7956 22.3161 24.5587 22.8787 25.1213C23.4413 25.6839 24.2043 26 25 26H26V27C26.0016 28.8299 26.4597 30.6305 27.3327 32.2387C28.2058 33.8469 29.4663 35.2119 31 36.21V38H28.82C28.6137 37.4165 28.2319 36.911 27.7271 36.5529C27.2222 36.1949 26.6189 36.0017 26 36H25C24.7348 36 24.4804 36.1054 24.2929 36.2929C24.1054 36.4804 24 36.7348 24 37C24 37.2652 24.1054 37.5196 24.2929 37.7071C24.4804 37.8946 24.7348 38 25 38H26C26.2652 38 26.5196 38.1054 26.7071 38.2929C26.8946 38.4804 27 38.7348 27 39V48C27 48.5304 26.7893 49.0391 26.4142 49.4142C26.0391 49.7893 25.5304 50 25 50C24.4696 50 23.9609 49.7893 23.5858 49.4142C23.2107 49.0391 23 48.5304 23 48V39C23 38.7348 22.8946 38.4804 22.7071 38.2929C22.5196 38.1054 22.2652 38 22 38H21C19.6744 38.0008 18.3658 38.2981 17.17 38.87C16.9667 38.9684 16.8028 39.1328 16.7048 39.3363C16.6068 39.5398 16.5807 39.7705 16.6305 39.9907C16.6804 40.211 16.8033 40.408 16.9794 40.5494C17.1554 40.6909 17.3741 40.7687 17.6 40.77C17.748 40.7701 17.8944 40.7394 18.03 40.68C18.957 40.2349 19.9717 40.0025 21 40V61C21 61.2652 21.1054 61.5196 21.2929 61.7071C21.4804 61.8946 21.7348 62 22 62C22.2652 62 22.5196 61.8946 22.7071 61.7071C22.8946 61.5196 23 61.2652 23 61V51.46C23.1314 51.5398 23.2684 51.61 23.41 51.67V51.67C23.6231 51.7576 23.8441 51.8246 24.07 51.87H24.24C24.4889 51.9361 24.7433 51.9796 25 52C26.0609 52 27.0783 51.5786 27.8284 50.8284C28.5786 50.0783 29 49.0609 29 48H45C45 49.0609 45.4214 50.0783 46.1716 50.8284C46.9217 51.5786 47.9391 52 49 52C49.2415 51.997 49.4824 51.9736 49.72 51.93H49.89C50.1159 51.8846 50.3369 51.8176 50.55 51.73V51.73C50.6916 51.67 50.8286 51.5999 50.96 51.52V61C50.96 61.2652 51.0654 61.5196 51.2529 61.7071C51.4404 61.8946 51.6948 62 51.96 62C52.2252 62 52.4796 61.8946 52.6671 61.7071C52.8546 61.5196 52.96 61.2652 52.96 61V39C52.96 38.2044 52.6439 37.4413 52.0813 36.8787C51.5187 36.3161 50.7556 36 49.96 36H48C47.3811 36.0017 46.7778 36.1949 46.2729 36.5529C45.7681 36.911 45.3863 37.4165 45.18 38H43V36.21C44.5337 35.2119 45.7942 33.8469 46.6673 32.2387C47.5403 30.6305 47.9984 28.8299 48 27V26H49C49.7956 26 50.5587 25.6839 51.1213 25.1213C51.6839 24.5587 52 23.7956 52 23V21.82C52.6614 21.58 53.2174 21.1152 53.5708 20.5069C53.9242 19.8985 54.0525 19.1853 53.9334 18.4919C53.8143 17.7985 53.4552 17.169 52.919 16.7135C52.3828 16.258 51.7035 16.0055 51 16V16ZM25 24C24.7348 24 24.4804 23.8946 24.2929 23.7071C24.1054 23.5196 24 23.2652 24 23V22H26V24H25ZM48 38H50C50.2652 38 50.5196 38.1054 50.7071 38.2929C50.8946 38.4804 51 38.7348 51 39V48C51 48.5304 50.7893 49.0391 50.4142 49.4142C50.0391 49.7893 49.5304 50 49 50C48.4696 50 47.9609 49.7893 47.5858 49.4142C47.2107 49.0391 47 48.5304 47 48V39C47 38.7348 47.1054 38.4804 47.2929 38.2929C47.4804 38.1054 47.7348 38 48 38ZM45 46H29V40H31.09C31.3336 41.3906 32.0598 42.6507 33.1407 43.5588C34.2217 44.4669 35.5882 44.9647 37 44.9647C38.4118 44.9647 39.7783 44.4669 40.8593 43.5588C41.9402 42.6507 42.6664 41.3906 42.91 40H45V46ZM41 39C41 40.0609 40.5786 41.0783 39.8284 41.8284C39.0783 42.5786 38.0609 43 37 43C35.9391 43 34.9217 42.5786 34.1716 41.8284C33.4214 41.0783 33 40.0609 33 39V37.24C35.5705 38.253 38.4295 38.253 41 37.24V39ZM46 27C46 29.3869 45.0518 31.6761 43.364 33.364C41.6761 35.0518 39.3869 36 37 36C34.613 36 32.3239 35.0518 30.636 33.364C28.9482 31.6761 28 29.3869 28 27V22H46V27ZM49 24H48V22H50V23C50 23.2652 49.8946 23.5196 49.7071 23.7071C49.5196 23.8946 49.2652 24 49 24ZM51 20H23C22.7348 20 22.4804 19.8946 22.2929 19.7071C22.1054 19.5196 22 19.2652 22 19C22 18.7348 22.1054 18.4804 22.2929 18.2929C22.4804 18.1054 22.7348 18 23 18H40C40.2652 18 40.5196 17.8946 40.7071 17.7071C40.8946 17.5196 41 17.2652 41 17C41 16.7348 40.8946 16.4804 40.7071 16.2929C40.5196 16.1054 40.2652 16 40 16H26C26.2078 13.7825 27.0839 11.6803 28.5124 9.97146C29.9409 8.26264 31.8545 7.02771 34 6.43V10C34 10.5304 34.2107 11.0391 34.5858 11.4142C34.9609 11.7893 35.4696 12 36 12H38C38.2652 12 38.5196 11.8946 38.7071 11.7071C38.8946 11.5196 39 11.2652 39 11C39 10.7348 38.8946 10.4804 38.7071 10.2929C38.5196 10.1054 38.2652 10 38 10H36V4H38V8C38 8.26522 38.1054 8.51957 38.2929 8.70711C38.4804 8.89464 38.7348 9 39 9C39.2652 9 39.5196 8.89464 39.7071 8.70711C39.8946 8.51957 40 8.26522 40 8V6.43C42.1455 7.02771 44.0591 8.26264 45.4876 9.97146C46.9161 11.6803 47.7922 13.7825 48 16H44C43.7348 16 43.4804 16.1054 43.2929 16.2929C43.1054 16.4804 43 16.7348 43 17C43 17.2652 43.1054 17.5196 43.2929 17.7071C43.4804 17.8946 43.7348 18 44 18H51C51.2652 18 51.5196 18.1054 51.7071 18.2929C51.8946 18.4804 52 18.7348 52 19C52 19.2652 51.8946 19.5196 51.7071 19.7071C51.5196 19.8946 51.2652 20 51 20Z" fill="#39519D"/>
<path d="M6 55C6 55.5933 6.17595 56.1734 6.50559 56.6667C6.83524 57.1601 7.30377 57.5446 7.85195 57.7716C8.40013 57.9987 9.00333 58.0581 9.58527 57.9424C10.1672 57.8266 10.7018 57.5409 11.1213 57.1213C11.5409 56.7018 11.8266 56.1672 11.9424 55.5853C12.0581 55.0033 11.9987 54.4001 11.7716 53.852C11.5446 53.3038 11.1601 52.8352 10.6667 52.5056C10.1734 52.1759 9.59334 52 9 52C8.20435 52 7.44129 52.3161 6.87868 52.8787C6.31607 53.4413 6 54.2044 6 55ZM10 55C10 55.1978 9.94135 55.3911 9.83147 55.5556C9.72159 55.72 9.56541 55.8482 9.38268 55.9239C9.19996 55.9996 8.99889 56.0194 8.80491 55.9808C8.61093 55.9422 8.43275 55.847 8.29289 55.7071C8.15304 55.5673 8.0578 55.3891 8.01921 55.1951C7.98063 55.0011 8.00043 54.8 8.07612 54.6173C8.15181 54.4346 8.27998 54.2784 8.44443 54.1685C8.60888 54.0586 8.80222 54 9 54C9.26522 54 9.51957 54.1054 9.70711 54.2929C9.89464 54.4804 10 54.7348 10 55Z" fill="#39519D"/>
<path d="M11 25C10.7348 25 10.4804 25.1054 10.2929 25.2929C10.1054 25.4804 10 25.7348 10 26V31H8V26C8 25.7348 7.89464 25.4804 7.70711 25.2929C7.51957 25.1054 7.26522 25 7 25C5.67392 25 4.40215 25.5268 3.46447 26.4645C2.52678 27.4021 2 28.6739 2 30V34C2.00244 34.9707 2.28742 35.9198 2.82014 36.7313C3.35286 37.5428 4.11029 38.1817 5 38.57V49.26C3.77702 50.1116 2.85772 51.3312 2.37592 52.7415C1.89412 54.1517 1.87496 55.6789 2.32123 57.1008C2.7675 58.5226 3.6559 59.765 4.85714 60.647C6.05837 61.529 7.50974 62.0046 9 62.0046C10.4903 62.0046 11.9416 61.529 13.1429 60.647C14.3441 59.765 15.2325 58.5226 15.6788 57.1008C16.125 55.6789 16.1059 54.1517 15.6241 52.7415C15.1423 51.3312 14.223 50.1116 13 49.26V38.57C13.8897 38.1817 14.6471 37.5428 15.1799 36.7313C15.7126 35.9198 15.9976 34.9707 16 34V30C16 28.6739 15.4732 27.4021 14.5355 26.4645C13.5979 25.5268 12.3261 25 11 25ZM14 34C13.9967 34.6626 13.7742 35.3054 13.3672 35.8282C12.9602 36.351 12.3915 36.7244 11.75 36.89C11.53 36.9467 11.3358 37.0766 11.1995 37.2584C11.0632 37.4401 10.9928 37.6629 11 37.89V49.89C11.0011 50.0645 11.0478 50.2357 11.1355 50.3866C11.2232 50.5375 11.3489 50.6627 11.5 50.75C12.4532 51.3003 13.1982 52.1498 13.6194 53.1667C14.0406 54.1836 14.1145 55.3111 13.8296 56.3742C13.5448 57.4374 12.917 58.3768 12.0438 59.0469C11.1706 59.7169 10.1007 60.0801 9 60.0801C7.89933 60.0801 6.82941 59.7169 5.95619 59.0469C5.08297 58.3768 4.45525 57.4374 4.17037 56.3742C3.8855 55.3111 3.95939 54.1836 4.3806 53.1667C4.80181 52.1498 5.54679 51.3003 6.5 50.75C6.65114 50.6627 6.77681 50.5375 6.86453 50.3866C6.95224 50.2357 6.99895 50.0645 7 49.89V37.89C7.00719 37.6629 6.93682 37.4401 6.8005 37.2584C6.66418 37.0766 6.47002 36.9467 6.25 36.89C5.60847 36.7244 5.03982 36.351 4.63279 35.8282C4.22576 35.3054 4.00326 34.6626 4 34V30C3.99967 29.3793 4.19186 28.7739 4.55006 28.267C4.90826 27.7602 5.41484 27.3769 6 27.17V32C6 32.2652 6.10536 32.5196 6.29289 32.7071C6.48043 32.8946 6.73478 33 7 33H11C11.2652 33 11.5196 32.8946 11.7071 32.7071C11.8946 32.5196 12 32.2652 12 32V27.17C12.5852 27.3769 13.0917 27.7602 13.4499 28.267C13.8081 28.7739 14.0003 29.3793 14 30V34Z" fill="#39519D"/>
<path d="M11 7C10.4067 7 9.82664 7.17595 9.33329 7.50559C8.83994 7.83524 8.45543 8.30377 8.22836 8.85195C8.0013 9.40013 7.94189 10.0033 8.05765 10.5853C8.1734 11.1672 8.45912 11.7018 8.87868 12.1213C9.29824 12.5409 9.83279 12.8266 10.4147 12.9424C10.9967 13.0581 11.5999 12.9987 12.1481 12.7716C12.6962 12.5446 13.1648 12.1601 13.4944 11.6667C13.8241 11.1734 14 10.5933 14 10C14 9.20435 13.6839 8.44129 13.1213 7.87868C12.5587 7.31607 11.7957 7 11 7ZM11 11C10.8022 11 10.6089 10.9414 10.4444 10.8315C10.28 10.7216 10.1518 10.5654 10.0761 10.3827C10.0004 10.2 9.98063 9.99889 10.0192 9.80491C10.0578 9.61093 10.153 9.43275 10.2929 9.29289C10.4327 9.15304 10.6109 9.0578 10.8049 9.01921C10.9989 8.98063 11.2 9.00043 11.3827 9.07612C11.5654 9.15181 11.7216 9.27998 11.8315 9.44443C11.9414 9.60888 12 9.80222 12 10C12 10.2652 11.8946 10.5196 11.7071 10.7071C11.5196 10.8946 11.2652 11 11 11Z" fill="#39519D"/>
<path d="M16.93 15.73L18.93 12.27C18.9961 12.1559 19.039 12.0298 19.0562 11.899C19.0734 11.7682 19.0645 11.6353 19.0301 11.508C18.9957 11.3807 18.9365 11.2614 18.8558 11.157C18.7751 11.0527 18.6746 10.9653 18.56 10.9L17.49 10.28C17.5033 10.0936 17.5033 9.90643 17.49 9.72L18.56 9.1C18.6746 9.03467 18.7751 8.94732 18.8558 8.84297C18.9365 8.73862 18.9957 8.61934 19.0301 8.492C19.0645 8.36466 19.0734 8.23178 19.0562 8.101C19.039 7.97022 18.9961 7.84413 18.93 7.73L16.93 4.27C16.8644 4.15523 16.7768 4.0546 16.6721 3.97393C16.5673 3.89325 16.4477 3.83414 16.32 3.8C16.193 3.76586 16.0604 3.75713 15.93 3.77429C15.7996 3.79145 15.6739 3.83417 15.56 3.9L14.49 4.52L14 4.24V3C14 2.73478 13.8946 2.48043 13.7071 2.29289C13.5196 2.10536 13.2652 2 13 2H9C8.73478 2 8.48043 2.10536 8.29289 2.29289C8.10536 2.48043 8 2.73478 8 3V4.24L7.51 4.52L6.44 3.9C6.32612 3.83417 6.20037 3.79145 6.06996 3.77429C5.93955 3.75713 5.80703 3.76586 5.68 3.8C5.5523 3.83414 5.43265 3.89325 5.32794 3.97393C5.22324 4.0546 5.13557 4.15523 5.07 4.27L3.07 7.73C3.00388 7.84413 2.96099 7.97022 2.94381 8.101C2.92663 8.23178 2.93549 8.36466 2.96988 8.492C3.00427 8.61934 3.06351 8.73862 3.1442 8.84297C3.22488 8.94732 3.32541 9.03467 3.44 9.1L4.51 9.72C4.49668 9.90643 4.49668 10.0936 4.51 10.28L3.44 10.9C3.32541 10.9653 3.22488 11.0527 3.1442 11.157C3.06351 11.2614 3.00427 11.3807 2.96988 11.508C2.93549 11.6353 2.92663 11.7682 2.94381 11.899C2.96099 12.0298 3.00388 12.1559 3.07 12.27L5.07 15.73C5.13557 15.8448 5.22324 15.9454 5.32794 16.0261C5.43265 16.1067 5.5523 16.1659 5.68 16.2C5.93694 16.2626 6.20801 16.227 6.44 16.1L7.51 15.48L8 15.76V17C8 17.2652 8.10536 17.5196 8.29289 17.7071C8.48043 17.8946 8.73478 18 9 18H13C13.2652 18 13.5196 17.8946 13.7071 17.7071C13.8946 17.5196 14 17.2652 14 17V15.76L14.49 15.48L15.56 16.1C15.792 16.227 16.0631 16.2626 16.32 16.2C16.4477 16.1659 16.5673 16.1067 16.6721 16.0261C16.7768 15.9454 16.8644 15.8448 16.93 15.73ZM15.7 13.87L14.93 13.43C14.7568 13.3297 14.5574 13.2837 14.3577 13.298C14.158 13.3122 13.9672 13.3861 13.81 13.51C13.4548 13.7918 13.0607 14.0208 12.64 14.19C12.4521 14.2625 12.2904 14.3901 12.1762 14.556C12.062 14.722 12.0006 14.9186 12 15.12V16H10V15.12C9.9994 14.9186 9.93798 14.722 9.82379 14.556C9.70959 14.3901 9.54793 14.2625 9.36 14.19C8.9393 14.0208 8.54523 13.7918 8.19 13.51C8.03277 13.3861 7.84196 13.3122 7.64229 13.298C7.44261 13.2837 7.24324 13.3297 7.07 13.43L6.3 13.87L5.3 12.13L6.07 11.69C6.24161 11.5907 6.37983 11.4426 6.46708 11.2645C6.55432 11.0865 6.58667 10.8865 6.56 10.69C6.47993 10.2402 6.47993 9.7798 6.56 9.33C6.58667 9.13352 6.55432 8.93354 6.46708 8.75548C6.37983 8.57742 6.24161 8.42932 6.07 8.33L5.3 7.87L6.3 6.13L7.07 6.57C7.24324 6.6703 7.44261 6.7163 7.64229 6.70204C7.84196 6.68777 8.03277 6.61391 8.19 6.49C8.54523 6.2082 8.9393 5.97917 9.36 5.81C9.54793 5.73748 9.70959 5.6099 9.82379 5.44395C9.93798 5.27801 9.9994 5.08144 10 4.88V4H12V4.88C12.0006 5.08144 12.062 5.27801 12.1762 5.44395C12.2904 5.6099 12.4521 5.73748 12.64 5.81C13.0607 5.97917 13.4548 6.2082 13.81 6.49C13.9672 6.61391 14.158 6.68777 14.3577 6.70204C14.5574 6.7163 14.7568 6.6703 14.93 6.57L15.7 6.13L16.7 7.87L15.93 8.31C15.7584 8.40932 15.6202 8.55742 15.5329 8.73548C15.4457 8.91354 15.4133 9.11352 15.44 9.31C15.5201 9.7598 15.5201 10.2202 15.44 10.67C15.4133 10.8665 15.4457 11.0665 15.5329 11.2445C15.6202 11.4226 15.7584 11.5707 15.93 11.67L16.7 12.11L15.7 13.87Z" fill="#39519D"/>
</svg>
