<?xml version="1.0" encoding="iso-8859-1"?>
<!-- Generator: Adobe Illustrator 21.1.0, SVG Export Plug-In . SVG Version: 6.00 Build 0)  -->
<svg version="1.1" id="Layer_1" xmlns="http://www.w3.org/2000/svg" xmlns:xlink="http://www.w3.org/1999/xlink" x="0px" y="0px"
	 viewBox="0 0 24 24" enable-background="new 0 0 24 24" xml:space="preserve">
<g>
	<path fill="#41baff" d="M15.5800781,4.5195313c-1.2751617-1.2050185-2.3896732-2.2593246-2.5581121-4.0428972
		C12.9968891,0.2110995,12.7904034,0,12.5236874,0H11.5C11.2238579,0,11,0.2238576,11,0.5V17c0,0.5522842-0.4477148,1-1,1H9
		c-2.2060547,0-4,1.3457031-4,3s1.7939453,3,4,3s4-1.3457031,4-3V4.7783203
		c0.3925781,0.4248047,0.8056641,0.8164063,1.2060547,1.1943359C15.7050781,7.390625,17,8.6152344,17,11v0.5
		c0,0.2761421,0.2238579,0.5,0.5,0.5h1c0.2761421,0,0.5-0.2238579,0.5-0.5V11
		C19,7.7539063,17.1826172,6.0351563,15.5800781,4.5195313z"/>
	<path opacity="0.2" fill="#FFFFFF" d="M15.5800781,4.5195313c-1.2751465-1.2050171-2.3896484-2.2593384-2.5581055-4.0429077
		C12.9968872,0.2110596,12.7904053,0,12.5236816,0H11.5C11.223877,0,11,0.2238159,11,0.5v0.25c0-0.2761841,0.223877-0.5,0.5-0.5
		h1.0236816c0.2667236,0,0.4732056,0.2110596,0.498291,0.4766235c0.168457,1.7835693,1.282959,2.8378906,2.5581055,4.0429077
		C17.1826172,6.2851563,19,8.0039063,19,11.25V11C19,7.7539063,17.1826172,6.0351563,15.5800781,4.5195313z"/>
	<path opacity="0.1" fill="#010101" d="M9,23.75c-2.1489868,0-3.8936768-1.2797241-3.9831543-2.875
		C5.0144653,20.9173584,5,20.9572144,5,21c0,1.6542969,1.7939453,3,4,3s4-1.3457031,4-3v-0.25
		C13,22.4042969,11.2060547,23.75,9,23.75z"/>
	<path opacity="0.1" fill="#010101" d="M17.5,12h1c0.276123,0,0.5-0.2238159,0.5-0.5v-0.25c0,0.2761841-0.223877,0.5-0.5,0.5h-1
		c-0.276123,0-0.5-0.2238159-0.5-0.5v0.25C17,11.7761841,17.223877,12,17.5,12z"/>
	<linearGradient id="SVGID_1_" gradientUnits="userSpaceOnUse" x1="6.4179535" y1="10.2151012" x2="17.2874794" y2="15.2836437">
		<stop  offset="0" style="stop-color:#FFFFFF;stop-opacity:0.2"/>
		<stop  offset="1" style="stop-color:#FFFFFF;stop-opacity:0"/>
	</linearGradient>
	<path fill="url(#SVGID_1_)" d="M15.5800781,4.5195313c-1.2751617-1.2050185-2.3896732-2.2593246-2.5581121-4.0428972
		C12.9968891,0.2110995,12.7904034,0,12.5236874,0H11.5C11.2238579,0,11,0.2238576,11,0.5V17c0,0.5522842-0.4477148,1-1,1H9
		c-2.2060547,0-4,1.3457031-4,3s1.7939453,3,4,3s4-1.3457031,4-3V4.7783203
		c0.3925781,0.4248047,0.8056641,0.8164063,1.2060547,1.1943359C15.7050781,7.390625,17,8.6152344,17,11v0.5
		c0,0.2761421,0.2238579,0.5,0.5,0.5h1c0.2761421,0,0.5-0.2238579,0.5-0.5V11
		C19,7.7539063,17.1826172,6.0351563,15.5800781,4.5195313z"/>
</g>
<g>
</g>
<g>
</g>
<g>
</g>
<g>
</g>
<g>
</g>
<g>
</g>
<g>
</g>
<g>
</g>
<g>
</g>
<g>
</g>
<g>
</g>
<g>
</g>
<g>
</g>
<g>
</g>
<g>
</g>
</svg>
