<?xml version="1.0" encoding="UTF-8"?>
<!DOCTYPE svg PUBLIC "-//W3C//DTD SVG 1.1//EN" "http://www.w3.org/Graphics/SVG/1.1/DTD/svg11.dtd">
<!-- Creator: CorelDRAW -->
<svg xmlns="http://www.w3.org/2000/svg" xml:space="preserve" width="1.70666in" height="1.70666in" version="1.1" style="shape-rendering:geometricPrecision; text-rendering:geometricPrecision; image-rendering:optimizeQuality; fill-rule:evenodd; clip-rule:evenodd"
viewBox="0 0 1707 1707"
 xmlns:xlink="http://www.w3.org/1999/xlink">
 <defs>
  <style type="text/css">
   <![CDATA[
    .fil0 {fill:none}
    .fil3 {fill:#7DD63E}
    .fil2 {fill:#C06000}
    .fil1 {fill:#D69759}
    .fil4 {fill:#FFA721}
    .fil5 {fill:#FFC56D}
    .fil6 {fill:white}
   ]]>
  </style>
 </defs>
 <rect class="fil0" x="-147" y="-147" width="2000" height="2000"/>
 <g id="Layer_x0020_1">
  <metadata id="CorelCorpID_0Corel-Layer"/>
  <path class="fil1" d="M864 910l-839 0c-12,0 -23,-10 -23,-23l0 -864c0,-13 11,-23 23,-23l839 0c12,0 23,10 23,23l0 864c0,13 -11,23 -23,23z"/>
  <path class="fil2" d="M513 0l233 0 0 446c0,9 -5,17 -12,21 -3,1 -7,2 -11,2 -4,0 -9,-1 -13,-4l-80 -58 -81 58c-7,5 -16,5 -23,2 -8,-4 -13,-12 -13,-21l0 -446z"/>
  <path class="fil2" d="M766 782l-643 0c-12,0 -23,-11 -23,-23 0,-13 11,-23 23,-23l643 0c13,0 23,10 23,23 0,12 -10,23 -23,23z"/>
  <path class="fil2" d="M766 658l-643 0c-12,0 -23,-10 -23,-23 0,-12 11,-22 23,-22l643 0c13,0 23,10 23,22 0,13 -10,23 -23,23z"/>
  <path class="fil2" d="M419 535l-296 0c-12,0 -23,-11 -23,-23 0,-13 11,-23 23,-23l296 0c13,0 23,10 23,23 0,12 -10,23 -23,23z"/>
  <path class="fil3" d="M1356 797c-3,0 -6,-1 -9,-2 -8,-3 -14,-12 -14,-21l0 -137 -303 0c-12,0 -23,-10 -23,-22l0 -320c0,-12 11,-22 23,-22l303 0 0 -137c0,-10 6,-18 14,-21 8,-4 18,-2 25,4l325 320c5,4 7,10 7,16 0,6 -2,12 -7,16l-325 320c-5,4 -10,6 -16,6z"/>
  <path class="fil3" d="M445 1707c-6,0 -12,-3 -16,-7l-326 -319c-4,-4 -7,-10 -7,-16 0,-7 3,-12 7,-17l326 -319c6,-6 16,-8 24,-5 9,4 14,12 14,21l0 137 303 0c13,0 23,10 23,23l0 319c0,13 -10,23 -23,23l-303 0 0 137c0,9 -5,17 -14,21 -2,1 -5,2 -8,2z"/>
  <path class="fil4" d="M1340 1707c-201,0 -365,-164 -365,-365 0,-201 164,-364 365,-364 201,0 364,163 364,364 0,201 -163,365 -364,365z"/>
  <path class="fil5" d="M1340 1604c-145,0 -262,-117 -262,-262 0,-144 117,-262 262,-262 144,0 262,118 262,262 0,145 -118,262 -262,262z"/>
  <path class="fil6" d="M1340 1510c-13,0 -23,-10 -23,-23l0 -25 -26 0c-12,0 -23,-10 -23,-22 0,-13 11,-23 23,-23l75 0 0 -52 -75 0c-12,0 -23,-10 -23,-23l0 -97c0,-13 11,-23 23,-23l26 0 0 -25c0,-12 10,-22 23,-22 12,0 23,10 23,22l0 25 26 0c12,0 22,10 22,23 0,12 -10,23 -22,23l-75 0 0 52 75 0c12,0 22,10 22,22l0 98c0,12 -10,22 -22,22l-26 0 0 25c0,13 -11,23 -23,23z"/>
 </g>
</svg>
