<?xml version="1.0" encoding="UTF-8"?>
<svg xmlns="http://www.w3.org/2000/svg" xmlns:xlink="http://www.w3.org/1999/xlink" width="58px" height="45px" viewBox="0 0 58 45" version="1.1">
    <!-- Generator: Sketch 52.6 (67491) - http://www.bohemiancoding.com/sketch -->
    <title>023 - Delvery Van</title>
    <desc>Created with Sketch.</desc>
    <g id="Page-1" stroke="none" stroke-width="1" fill="none" fill-rule="evenodd">
        <g id="023---Delvery-Van">
            <path d="M41.29,36 L36,36 L38,4 L47.06,4 C47.6553306,3.99691919 48.2206108,4.26120602 48.6,4.72 L57.54,15.44 C57.8374212,15.8002465 58.0000726,16.2528417 58,16.72 L58,34 C57.9967052,35.1032019 57.1032019,35.9967052 56,36 L41.29,36 Z" id="Path" fill="#3B97D3"/>
            <path d="M38,2 L38,36 L16.71,36 C15.8275269,33.0303431 13.0980028,30.9939659 10,30.9939659 C6.90199723,30.9939659 4.17247313,33.0303431 3.29,36 L2,36 C0.896798134,35.9967052 0.00329480111,35.1032019 0,34 L0,2 C0.00329480111,0.896798134 0.896798134,0.00329480111 2,0 L36,0 C37.1032019,0.00329480111 37.9967052,0.896798134 38,2 Z" id="Path" fill="#F29C1F"/>
            <path d="M46,27 L44,27 C43.4477153,27 43,26.5522847 43,26 C43,25.4477153 43.4477153,25 44,25 L46,25 C46.5522847,25 47,25.4477153 47,26 C47,26.5522847 46.5522847,27 46,27 Z" id="Path" fill="#2980BA"/>
            <path d="M17,38 C16.9999999,41.8659932 13.8659932,44.9999999 10,44.9999999 C6.13400679,44.9999999 3.00000006,41.8659932 3,38 C2.99810101,37.3227218 3.09581303,36.6488458 3.29,36 C4.17247313,33.0303431 6.90199723,30.9939659 10,30.9939659 C13.0980028,30.9939659 15.8275269,33.0303431 16.71,36 C16.904187,36.6488458 17.001899,37.3227218 17,38 Z" id="Path" fill="#547580"/>
            <circle id="Oval" fill="#ECF0F1" cx="10" cy="38" r="2"/>
            <path d="M55,38 C55,41.8659932 51.8659932,45 48,45 C44.1340068,45 41,41.8659932 41,38 C40.998101,37.3227218 41.095813,36.6488458 41.29,36 C42.1724731,33.0303431 44.9019972,30.9939659 48,30.9939659 C51.0980028,30.9939659 53.8275269,33.0303431 54.71,36 C54.904187,36.6488458 55.001899,37.3227218 55,38 Z" id="Path" fill="#547580"/>
            <circle id="Oval" fill="#ECF0F1" cx="48" cy="38" r="2"/>
            <rect id="Rectangle" fill="#F3D55B" x="5" y="8" width="28" height="17" rx="1"/>
            <path d="M28,15 L10,15 C9.44771525,15 9,14.5522847 9,14 C9,13.4477153 9.44771525,13 10,13 L28,13 C28.5522847,13 29,13.4477153 29,14 C29,14.5522847 28.5522847,15 28,15 Z" id="Path" fill="#F5EFCA"/>
            <path d="M28,20 L10,20 C9.44771525,20 9,19.5522847 9,19 C9,18.4477153 9.44771525,18 10,18 L28,18 C28.5522847,18 29,18.4477153 29,19 C29,19.5522847 28.5522847,20 28,20 Z" id="Path" fill="#F5EFCA"/>
            <path d="M58,16.72 L58,20 L45,20 C43.8967981,19.9967052 43.0032948,19.1032019 43,18 L43,3.99997336 L47.06,4 C47.6553306,3.99691919 48.2206108,4.26120602 48.6,4.72 L57.54,15.44 C57.8374212,15.8002465 58.0000726,16.2528417 58,16.72 Z" id="Path" fill="#67B9CC"/>
        </g>
    </g>
</svg>
